<?xml version="1.0" ?><svg viewBox="0 0 32 32" xmlns="http://www.w3.org/2000/svg"><defs><style>.cls-1{fill:none;}.cls-2{fill-rule:evenodd;}</style></defs><title/><g id="MEDIUM"><rect class="cls-1" height="32" id="Frame" width="32"/><path class="cls-2" d="M16,2A14,14,0,1,0,30,16,14,14,0,0,0,16,2ZM10.82062,22a6,6,0,1,1,6-6A6,6,0,0,1,10.82062,22Zm10.0863,0c-1.70453,0-3.0863-2.68628-3.0863-6s1.38177-6,3.0863-6,3.08631,2.68628,3.08631,6S22.61145,22,20.90692,22Zm5.17816,0c-.60437,0-1.0943-2.68628-1.0943-6s.48993-6,1.0943-6,1.0943,2.68628,1.0943,6S26.68945,22,26.08508,22Z" data-name="Medium" id="Medium-2"/></g></svg>